<svg width="1600" height="320" viewBox="0 0 1600 320" preserveAspectRatio="none" fill="none" xmlns="http://www.w3.org/2000/svg">
  <defs>
    <linearGradient id="wave-stroke" x1="312" y1="241" x2="1586" y2="115" gradientUnits="userSpaceOnUse">
      <stop stop-color="#2563EB" stop-opacity="0"/>
      <stop offset="0.28" stop-color="#3B82F6"/>
      <stop offset="0.68" stop-color="#22D3EE"/>
      <stop offset="1" stop-color="#2DD4BF"/>
    </linearGradient>
    <linearGradient id="wave-fill" x1="470" y1="281" x2="1568" y2="129" gradientUnits="userSpaceOnUse">
      <stop stop-color="#2563EB" stop-opacity="0"/>
      <stop offset="0.36" stop-color="#2563EB" stop-opacity="0.18"/>
      <stop offset="0.74" stop-color="#0891B2" stop-opacity="0.30"/>
      <stop offset="1" stop-color="#2DD4BF" stop-opacity="0.20"/>
    </linearGradient>
    <linearGradient id="wave-fill-soft" x1="662" y1="219" x2="1600" y2="205" gradientUnits="userSpaceOnUse">
      <stop stop-color="#2563EB" stop-opacity="0"/>
      <stop offset="0.48" stop-color="#0EA5E9" stop-opacity="0.12"/>
      <stop offset="1" stop-color="#22D3EE" stop-opacity="0.17"/>
    </linearGradient>
    <radialGradient id="cyan-haze" cx="0" cy="0" r="1" gradientUnits="userSpaceOnUse" gradientTransform="translate(1425 190) rotate(176) scale(460 154)">
      <stop stop-color="#22D3EE" stop-opacity="0.20"/>
      <stop offset="1" stop-color="#22D3EE" stop-opacity="0"/>
    </radialGradient>
    <pattern id="dot-grid" width="9" height="9" patternUnits="userSpaceOnUse">
      <circle cx="1.2" cy="1.2" r="0.8" fill="#38BDF8" fill-opacity="0.24"/>
    </pattern>
    <linearGradient id="dot-fade" x1="688" y1="177" x2="1600" y2="177" gradientUnits="userSpaceOnUse">
      <stop stop-color="white" stop-opacity="0"/>
      <stop offset="0.22" stop-color="white" stop-opacity="0.45"/>
      <stop offset="0.82" stop-color="white"/>
      <stop offset="1" stop-color="white" stop-opacity="0.2"/>
    </linearGradient>
    <mask id="dot-mask">
      <path d="M564 285C720 202 778 154 915 190C1048 225 1102 271 1243 225C1362 187 1406 100 1600 74V298H564V285Z" fill="url(#dot-fade)"/>
    </mask>
    <filter id="glow" x="-25%" y="-180%" width="150%" height="460%" color-interpolation-filters="sRGB">
      <feGaussianBlur stdDeviation="7" result="blur"/>
      <feMerge>
        <feMergeNode in="blur"/>
        <feMergeNode in="SourceGraphic"/>
      </feMerge>
    </filter>
    <filter id="soft-blur" x="-20%" y="-60%" width="140%" height="220%">
      <feGaussianBlur stdDeviation="28"/>
    </filter>
  </defs>

  <ellipse cx="1410" cy="194" rx="390" ry="116" fill="url(#cyan-haze)" filter="url(#soft-blur)"/>

  <path d="M305 307C462 300 527 205 670 194C815 182 846 269 997 257C1147 245 1175 157 1303 161C1418 165 1492 220 1600 224V320H305V307Z" fill="url(#wave-fill-soft)"/>
  <path d="M370 302C504 280 582 199 705 199C835 199 901 275 1038 265C1179 254 1240 143 1368 139C1467 136 1531 171 1600 181V320H370V302Z" fill="url(#wave-fill)"/>

  <g mask="url(#dot-mask)">
    <rect x="540" y="58" width="1060" height="262" fill="url(#dot-grid)"/>
  </g>

  <g opacity="0.26" stroke="#38BDF8" stroke-width="1">
    <path d="M418 307C555 255 604 190 734 193C854 196 926 248 1042 242C1198 234 1265 118 1404 117C1486 117 1547 144 1600 151"/>
    <path d="M486 316C618 255 680 216 791 217C916 218 983 271 1104 247C1240 220 1307 135 1432 132C1503 130 1555 150 1600 162"/>
    <path d="M614 316C716 276 768 246 876 249C995 253 1063 290 1172 251C1285 211 1350 151 1462 151C1516 151 1563 165 1600 176"/>
    <path d="M697 319C805 284 872 276 966 283C1088 292 1144 291 1246 245C1356 195 1431 172 1521 180C1550 183 1578 189 1600 195"/>
  </g>

  <path d="M245 304C424 296 514 229 647 213C780 198 835 246 959 248C1094 251 1150 216 1249 194C1373 165 1449 171 1600 211" stroke="url(#wave-stroke)" stroke-width="2" stroke-linecap="round" filter="url(#glow)"/>
  <path d="M394 286C537 282 615 181 757 184C900 187 940 253 1085 251C1234 248 1307 128 1437 119C1500 115 1553 128 1600 140" stroke="url(#wave-stroke)" stroke-width="1.4" stroke-linecap="round" opacity="0.88"/>
  <path d="M608 235C741 143 824 66 954 68C1064 70 1125 130 1232 129C1361 128 1441 57 1600 48" stroke="url(#wave-stroke)" stroke-width="1.1" stroke-linecap="round" opacity="0.48"/>
  <path d="M756 204C882 190 958 132 1071 135C1190 139 1225 206 1340 198C1438 191 1498 124 1600 115" stroke="url(#wave-stroke)" stroke-width="2.2" stroke-linecap="round" filter="url(#glow)"/>
  <path d="M971 281C1085 257 1136 188 1248 184C1356 180 1423 231 1512 216C1546 210 1575 197 1600 184" stroke="#22D3EE" stroke-opacity="0.56" stroke-width="1.1" stroke-linecap="round"/>
</svg>
